<svg version="1.2" xmlns="http://www.w3.org/2000/svg" viewBox="0 0 142 121" width="142" height="121"><style>.a{fill:#000000}</style><path fill-rule="evenodd" class="a" d="m68.7 7v16.7l-6.7 5.6 6.7 5.4v16.6l-6.8 6.8h-61.2q-0.3 0-0.3-0.3v-57.1q0-0.2 0.3-0.2h61.3zm-50.9 14.5h33.5v-5.3h-33.5zm0 20.9h33.5v-5.2h-33.5z"/><path class="a" d="m72.6 0.7l68.1-0.2 0.2 57.3-68 0.3 0.2-15.6h50.4v-5.3h-33.5v-16h33.7l-0.1-5h-50.9z"/><path fill-rule="evenodd" class="a" d="m68.6 78.3l-50.9-0.2-0.1 5.3 50.7 0.2v36.6l-68-0.2 0.3-57.4h67.7zm-50.9 26.3h33.6v-5.2h-33.6z"/><path fill-rule="evenodd" class="a" d="m141 120.3h-68.3v-57.5h68.3zm-17.5-42.2h-33.5v26.5h33.5z"/></svg>
